<?xml version="1.0" encoding="utf-8"?>
<!-- Generator: Adobe Illustrator 21.1.0, SVG Export Plug-In . SVG Version: 6.00 Build 0)  -->
<svg version="1.1" id="Layer_1" xmlns="http://www.w3.org/2000/svg" xmlns:xlink="http://www.w3.org/1999/xlink" x="0px" y="0px"
	 viewBox="0 0 266.4 28.8" enable-background="new 0 0 266.4 28.8" xml:space="preserve">
<g transform="matrix( 1, 0, 0, 1, 0,0) ">
	<g>
		<g id="Layer2_0_FILL_3_">
			<path fill="#121212" d="M59.4,4l1.3,1.6h5.5V4H59.4 M117.7,5.6c-0.6-0.5-1.3-0.9-2-1.2c-0.8-0.3-1.6-0.4-2.6-0.4h-8.2v20.4h2.6
				v-8.1h4l5.2,8.1h3l-5.5-8.3c0.7,0,1.3-0.2,2-0.5c0.7-0.3,1.2-0.7,1.7-1.2c0.5-0.5,0.9-1.1,1.1-1.8c0.3-0.8,0.4-1.6,0.4-2.5
				c0-0.9-0.1-1.8-0.4-2.6C118.7,6.8,118.2,6.2,117.7,5.6 M116.5,8.5c0.2,0.5,0.3,1,0.3,1.6c0,0.6-0.1,1.1-0.3,1.6
				c-0.2,0.5-0.5,0.9-0.8,1.2c-0.4,0.4-0.8,0.6-1.3,0.8c-0.5,0.2-1.1,0.3-1.7,0.3h-5.3V6.2h5.3c0.6,0,1.1,0.1,1.7,0.3
				c0.5,0.2,0.9,0.5,1.3,0.8C116.1,7.6,116.3,8,116.5,8.5 M134.8,4.4c-0.6,0.3-1.2,0.6-1.8,0.9c-0.6,0.4-1.1,0.8-1.5,1.3
				c-0.5,0.5-0.9,1-1.3,1.5c-0.4,0.6-0.7,1.2-1,1.8c-0.3,0.7-0.5,1.3-0.6,2.1c-0.2,0.7-0.2,1.5-0.2,2.3c0,0.8,0.1,1.5,0.2,2.3
				c0.1,0.7,0.3,1.4,0.6,2s0.6,1.3,1,1.8c0.4,0.6,0.8,1.1,1.3,1.5c0.5,0.5,1,0.9,1.5,1.2c0.6,0.4,1.1,0.7,1.8,0.9
				c0.7,0.2,1.3,0.4,2,0.5c0.7,0.1,1.4,0.2,2.1,0.2c0.8,0,1.6-0.1,2.4-0.2c0.7-0.2,1.4-0.4,2.1-0.7c0.7-0.3,1.3-0.7,1.9-1.1
				c0.6-0.4,1.1-0.9,1.6-1.4v-7.4h-9.6v2.3h7v4.2c-0.6,0.6-1.3,1.1-2.2,1.5c-1.4,0.5-2.5,0.7-3.3,0.7c-1.1,0-2.1-0.2-3.1-0.6
				c-1-0.4-1.8-1-2.5-1.7c-0.7-0.8-1.3-1.6-1.7-2.7s-0.6-2.1-0.6-3.3c0-1.2,0.2-2.3,0.6-3.3s1-1.9,1.7-2.7c0.7-0.7,1.5-1.3,2.5-1.7
				c1-0.4,2-0.6,3.1-0.6c0.4,0,0.9,0,1.3,0.1V3.7c-0.4,0-0.8,0-1.3,0c-0.7,0-1.4,0-2.1,0.1C136.2,3.9,135.5,4.1,134.8,4.4
				 M166.2,3.9h-3.2l-8.2,20.4h2.9l1.5-3.8h10.9l1.5,3.8h2.8L166.2,3.9 M160.1,18.2l4.6-12l4.6,12H160.1 M256.3,3.9h-3.2L245,24.3
				h2.9l1.5-3.8h10.9l1.5,3.8h2.8L256.3,3.9 M250.1,18.2l4.6-12l4.6,12H250.1 M95,3.9H81.6v20.4H95V22H84.2v-7h10.6v-2.2H84.2V6.2
				H95V3.9 M195.7,5.6c-0.6-0.5-1.3-0.9-2-1.2c-0.8-0.3-1.6-0.4-2.6-0.4h-8.2v20.4h2.6v-8.1h4l5.2,8.1h3l-5.5-8.3
				c0.7,0,1.3-0.2,2-0.5c0.7-0.3,1.2-0.7,1.7-1.2c0.5-0.5,0.9-1.1,1.1-1.8c0.3-0.8,0.4-1.6,0.4-2.5c0-0.9-0.1-1.8-0.4-2.6
				C196.7,6.8,196.3,6.2,195.7,5.6 M194.6,8.5c0.2,0.5,0.3,1,0.3,1.6c0,0.6-0.1,1.1-0.3,1.6s-0.5,0.9-0.8,1.2
				c-0.4,0.4-0.8,0.6-1.3,0.8c-0.5,0.2-1.1,0.3-1.7,0.3h-5.3V6.2h5.3c0.6,0,1.1,0.1,1.7,0.3c0.5,0.2,0.9,0.5,1.3,0.8
				C194.1,7.6,194.4,8,194.6,8.5 M236.4,3.9h-2.6v20.4h2.6V3.9 M212.9,4.4c-0.6,0.3-1.2,0.6-1.8,0.9c-0.6,0.4-1.1,0.8-1.5,1.2
				c-0.5,0.5-0.9,1-1.2,1.5c-0.4,0.6-0.7,1.2-1,1.8c-0.3,0.6-0.5,1.3-0.6,2c-0.2,0.7-0.2,1.5-0.2,2.3c0,0.8,0.1,1.5,0.2,2.2
				c0.1,0.7,0.3,1.4,0.6,2.1c0.3,0.6,0.6,1.2,1,1.8c0.4,0.6,0.8,1.1,1.2,1.5c0.5,0.5,1,0.9,1.5,1.2c0.6,0.4,1.1,0.7,1.8,0.9
				c0.6,0.2,1.3,0.4,2,0.5c0.7,0.2,1.4,0.2,2.1,0.2c0.9,0,1.8-0.1,2.6-0.3c0.8-0.2,1.5-0.5,2.1-0.8c0.6-0.3,1.2-0.8,1.8-1.3
				c0.5-0.5,1-1,1.4-1.6l-2.2-1.2c-0.3,0.5-0.6,0.9-1,1.2c-0.4,0.4-0.9,0.7-1.3,0.9c-0.5,0.3-1,0.5-1.6,0.6
				c-0.6,0.2-1.2,0.2-1.8,0.2c-1.1,0-2.1-0.2-3.1-0.6c-0.9-0.4-1.7-1-2.5-1.7c-0.7-0.7-1.2-1.6-1.6-2.6s-0.6-2.1-0.6-3.3
				c0-1.2,0.2-2.3,0.6-3.3s0.9-1.9,1.6-2.7c0.7-0.7,1.5-1.3,2.5-1.7c1-0.4,2-0.6,3.1-0.6c0.6,0,1.2,0.1,1.8,0.2
				c0.6,0.1,1.1,0.3,1.6,0.6c0.5,0.3,0.9,0.6,1.3,1c0.4,0.3,0.7,0.7,1,1.2l2.1-1.2c-0.4-0.6-0.9-1.2-1.4-1.6
				c-0.5-0.5-1.1-0.9-1.7-1.3c-0.7-0.4-1.4-0.6-2.2-0.8c-0.8-0.2-1.6-0.3-2.6-0.3c-0.7,0-1.4,0.1-2.1,0.2
				C214.1,4,213.5,4.1,212.9,4.4 M71,3.9h-2.6V20L56.7,3.9h-2.6v20.4h2.6V7.9l11.9,16.4H71V3.9 M43.5,3.9h-2.6v12.4
				c0,0.9-0.1,1.8-0.3,2.6c-0.3,0.7-0.6,1.3-1.1,1.9c-0.5,0.6-1.1,1-1.8,1.2c-0.8,0.3-1.6,0.4-2.5,0.4c-0.9,0-1.7-0.1-2.5-0.4
				c-0.7-0.3-1.3-0.7-1.8-1.2c-0.5-0.5-0.9-1.1-1.1-1.9c-0.2-0.8-0.3-1.6-0.3-2.6V3.9h-2.6v12.5c0,1.2,0.2,2.4,0.5,3.4
				c0.4,1,0.9,1.9,1.6,2.6l1.1,0.9l1.4,0.7c0.7,0.3,1.9,0.5,3.6,0.6c0.9,0,2.1-0.2,3.6-0.6l1.4-0.7l1.1-0.9c0.7-0.7,1.2-1.6,1.6-2.6
				c0.4-1,0.5-2.2,0.5-3.4V3.9 M6.7,4.1C5.9,4.3,5.1,4.7,4.5,5.2C3.9,5.7,3.4,6.3,3,7C2.7,7.7,2.5,8.5,2.5,9.3c0,1,0.2,1.8,0.6,2.5
				c0.4,0.6,0.9,1.1,1.6,1.6c0.9,0.6,2.4,1.1,4.7,1.7l1.9,0.6c0.7,0.2,1.2,0.4,1.6,0.7c0.5,0.3,0.9,0.6,1.2,1c0.3,0.5,0.4,1,0.4,1.5
				c0,0.4-0.1,0.8-0.2,1.2c-0.2,0.4-0.5,0.8-0.8,1.1c-0.4,0.4-0.9,0.6-1.5,0.8c-0.7,0.2-1.4,0.3-2.3,0.3c-0.7,0-1.4-0.1-2-0.2
				C7.2,22,6.6,21.8,6,21.5c-0.7-0.4-1.6-1-2.6-2l-1.5,1.9c0.4,0.5,0.9,0.9,1.4,1.3c0.5,0.4,1.1,0.7,1.8,1c0.7,0.3,1.4,0.5,2.1,0.7
				c0.8,0.2,1.6,0.2,2.5,0.2c1.3,0,2.5-0.2,3.5-0.5c0.9-0.3,1.7-0.8,2.3-1.4c0.6-0.5,1-1.2,1.3-1.9c0.3-0.7,0.4-1.4,0.4-2.2
				c0-1-0.2-1.9-0.6-2.7c-0.4-0.7-1-1.2-1.7-1.7c-0.6-0.4-1.4-0.8-2.3-1.1l-2.5-0.7c-1.7-0.5-2.9-0.9-3.4-1.2
				c-0.5-0.3-0.8-0.6-1.1-0.9c-0.3-0.4-0.4-0.8-0.4-1.3c0-0.5,0.1-0.9,0.3-1.3c0.2-0.4,0.5-0.7,0.9-1c0.4-0.3,0.8-0.5,1.3-0.6
				C8.2,6,8.7,5.9,9.3,5.9c1.1,0,2.2,0.2,3.2,0.6c0.5,0.2,1,0.5,1.4,0.8c0.5,0.3,0.9,0.7,1.3,1.1l1.5-1.9c-0.4-0.5-0.9-0.9-1.4-1.2
				c-0.5-0.3-1.1-0.6-1.7-0.9c-0.6-0.2-1.3-0.4-2-0.5C11,3.7,10.3,3.6,9.5,3.6C8.5,3.6,7.6,3.8,6.7,4.1z"/>
		</g>
	</g>
</g>
</svg>
